<svg width="225" height="62" viewBox="0 0 225 62" fill="none" xmlns="http://www.w3.org/2000/svg">
<g style="mix-blend-mode:difference">
<path d="M28.887 8.16714V1.14164H33.6047V43.119C33.6047 55.8527 27.0724 62 16.9112 62C6.89513 62 1.59677 56.1161 1.01612 48.3003H5.95158C6.67739 53.1303 9.79834 56.9943 16.9838 56.9943C24.4596 56.9943 28.887 53.0425 28.887 43.9093V35.5666H28.7418C26.5644 40.221 22.4999 43.8215 16.258 43.8215C7.40319 43.8215 0 36.796 0 21.8669C0 7.11331 7.40319 0.0878176 16.258 0.0878176C22.4999 0.0878176 26.5644 3.68838 28.7418 8.16714H28.887ZM16.9112 38.8159C23.7338 38.8159 28.887 33.3711 28.887 21.8669C28.887 10.5382 23.7338 5.09348 16.9112 5.09348C9.29028 5.09348 4.93546 11.7677 4.93546 21.8669C4.93546 32.1416 9.29028 38.8159 16.9112 38.8159Z" fill="white"/>
<path d="M52.3769 47.0708C44.9737 47.0708 40.256 42.0652 40.256 34.6006C40.256 24.9405 45.9172 21.8669 55.4978 19.847C61.5946 18.5297 65.5139 18.0028 65.5139 12.6459C65.5139 8.07932 63.0462 5.00566 57.0946 5.00566C49.9091 5.00566 47.3688 8.07932 47.0059 14.6657H41.9979C42.3608 6.76204 46.4979 0 57.2398 0C64.0623 0 70.0865 3.51275 70.0865 14.2266V36.6204C70.0865 40.221 70.5219 41.8895 72.1913 41.8895C72.4816 41.8895 72.7719 41.8895 73.2074 41.8017V45.9292C72.409 46.1048 71.6106 46.2804 70.7397 46.2804C67.6187 46.2804 65.8042 44.7875 65.5139 39.1671H65.3687C62.8284 44.2606 58.401 47.0708 52.3769 47.0708ZM52.9575 42.0652C60.5059 42.0652 65.5139 37.2351 65.5139 29.1558V20.813C64.4252 22.6572 60.5059 23.711 56.0785 24.5892C48.893 26.17 45.1914 28.3654 45.1914 34.0737C45.1914 39.255 47.5866 42.0652 52.9575 42.0652Z" fill="white"/>
<path d="M97.0625 0.0878176C103.667 0.0878176 109.183 4.56657 109.183 14.4901V45.9292H104.466V15.7195C104.466 10.0113 102.288 5.09348 95.9012 5.09348C88.8609 5.09348 84.2158 11.0652 84.2158 17.6516V45.9292H79.4981V1.14164H84.2158V7.55241H84.361C86.4658 3.86402 90.4577 0.0878176 97.0625 0.0878176Z" fill="white"/>
<path d="M134.978 0C144.05 0 151.308 8.78187 151.308 23.5354C151.308 38.2011 144.05 46.983 134.978 46.983C128.518 46.983 124.671 43.119 122.494 38.3768H122.349V61.4731H117.631V1.14164H122.349V8.34277H122.494C124.671 4.03966 128.518 0 134.978 0ZM134.47 41.9773C142.163 41.9773 146.373 33.5467 146.373 23.5354C146.373 13.4363 142.163 5.00566 134.47 5.00566C127.357 5.00566 122.349 12.2068 122.349 23.5354C122.349 34.7762 127.357 41.9773 134.47 41.9773Z" fill="white"/>
<path d="M168.193 47.0708C160.79 47.0708 156.073 42.0652 156.073 34.6006C156.073 24.9405 161.734 21.8669 171.314 19.847C177.411 18.5297 181.33 18.0028 181.33 12.6459C181.33 8.07932 178.863 5.00566 172.911 5.00566C165.726 5.00566 163.185 8.07932 162.823 14.6657H157.814C158.177 6.76204 162.314 0 173.056 0C179.879 0 185.903 3.51275 185.903 14.2266V36.6204C185.903 40.221 186.339 41.8895 188.008 41.8895C188.298 41.8895 188.589 41.8895 189.024 41.8017V45.9292C188.226 46.1048 187.427 46.2804 186.556 46.2804C183.435 46.2804 181.621 44.7875 181.33 39.1671H181.185C178.645 44.2606 174.218 47.0708 168.193 47.0708ZM168.774 42.0652C176.322 42.0652 181.33 37.2351 181.33 29.1558V20.813C180.242 22.6572 176.322 23.711 171.895 24.5892C164.71 26.17 161.008 28.3654 161.008 34.0737C161.008 39.255 163.403 42.0652 168.774 42.0652Z" fill="white"/>
<path d="M212.879 0.0878176C219.484 0.0878176 225 4.56657 225 14.4901V45.9292H220.282V15.7195C220.282 10.0113 218.105 5.09348 211.718 5.09348C204.678 5.09348 200.032 11.0652 200.032 17.6516V45.9292H195.315V1.14164H200.032V7.55241H200.178C202.282 3.86402 206.274 0.0878176 212.879 0.0878176Z" fill="white"/>
</g>
</svg>
